<svg xmlns="http://www.w3.org/2000/svg" id="Layer_1" viewBox="0 0 792 612"><defs><style>      .st0 {        fill: #b41f24;      }      .st1 {        fill: #333;      }    </style></defs><path class="st1" d="M143.55,306.89c0,17.93-11.63,31.25-29.65,31.25h-29.21v-59.04h29.3c17.58,0,29.56,11.27,29.56,27.79ZM109.73,326.25c12.61,0,19.89-7.64,19.89-18.91,0-10.3-7.28-15.71-19.8-15.71h-12.34v34.62h12.25Z"></path><path class="st0" d="M155.72,279.99c0-5.06,3.46-8.34,8.17-8.34s8.26,3.46,8.26,8.08c0,5.06-3.46,8.34-8.17,8.34s-8.26-3.46-8.26-8.08ZM157.94,338.14v-44.39h12.78v44.39h-12.78Z"></path><path class="st1" d="M198.87,308.05c0,12.25,8.79,18.91,20.33,18.91,8.08,0,14.65-3.91,16.96-11.18h-18.2v-11.36h31.61c1.6,21.13-10.83,35.69-32.14,35.69-18.91,0-32.4-13.58-32.4-32.05,0-20.06,14.47-30.72,33.02-30.72,11.9,0,25.03,3.99,29.21,19.18l-11.72,4.17c-3.29-8.88-11.19-10.74-17.84-10.74-11.45,0-18.82,6.66-18.82,18.11h-.01Z"></path><path class="st1" d="M265.46,338.14v-59.04h12.78v59.04h-12.78Z"></path><path class="st1" d="M354.24,291.71h-24.86v46.43h-12.78v-46.43h-24.86v-12.61h62.5v12.61Z"></path><path class="st1" d="M405.82,323.94h-30.89c-2.04,4.44-4.26,9.23-6.66,14.21h-14.56l28.76-59.04h15.89l28.76,59.04h-14.56l-6.75-14.21h0ZM380.88,311.51h19.09l-8.43-17.84h-2.22c-.53.98-3.64,7.63-8.43,17.84h-.01Z"></path><path class="st1" d="M491.59,338.14h-52.56v-59.04h12.78v46.52h39.77v12.52h.01Z"></path><path class="st0" d="M509.66,338.14v-50.78h-9.57v-7.04h16.61v57.82h-7.04Z"></path><path class="st0" d="M537.66,309.45c0-19.13,12.17-31.3,30.61-31.3s30.96,12.35,30.96,30.7-12.26,31.3-30.69,31.3-30.87-12.35-30.87-30.69h-.01ZM568.27,285.01c-14.09,0-23.22,9.13-23.22,23.83s9.22,24.43,23.48,24.43,23.3-9.04,23.3-23.83-9.3-24.43-23.56-24.43Z"></path><path class="st0" d="M622.09,338.14v-50.78h-9.57v-7.04h16.61v57.82h-7.04Z"></path><path class="st0" d="M650.09,309.45c0-19.13,12.17-31.3,30.61-31.3s30.96,12.35,30.96,30.7-12.26,31.3-30.69,31.3-30.87-12.35-30.87-30.69h-.01ZM680.7,285.01c-14.09,0-23.22,9.13-23.22,23.83s9.22,24.43,23.48,24.43,23.3-9.04,23.3-23.83-9.3-24.43-23.56-24.43Z"></path></svg>